<svg width="174" height="169" viewBox="0 0 174 169" fill="none" xmlns="http://www.w3.org/2000/svg">
<path d="M52.8289 1.18281C53.3854 0.944787 53.9449 0.712398 54.5073 0.485718H119.493C120.055 0.712398 120.615 0.944787 121.171 1.18281H52.8289Z" fill="white"/>
<path d="M39.7522 8.15377C40.1147 7.91877 40.4791 7.68639 40.8453 7.45667H133.155C133.521 7.68639 133.885 7.91877 134.248 8.15377H39.7522Z" fill="white"/>
<path d="M30.4258 15.1247C30.6989 14.8907 30.9735 14.6583 31.2495 14.4276H142.751C143.027 14.6583 143.301 14.8907 143.574 15.1247H30.4258Z" fill="white"/>
<path d="M23.178 22.0957C23.3944 21.8621 23.6122 21.6297 23.8312 21.3986H150.169C150.388 21.6297 150.606 21.8621 150.822 22.0957H23.178Z" fill="white"/>
<path d="M17.3586 29.0666C17.5337 28.8334 17.7099 28.601 17.8872 28.3695H156.113C156.29 28.601 156.466 28.8334 156.641 29.0666H17.3586Z" fill="white"/>
<path d="M12.6354 36.0376C12.7775 35.8045 12.9206 35.5721 13.0647 35.3405H160.935C161.079 35.5721 161.223 35.8045 161.365 36.0376H12.6354Z" fill="white"/>
<path d="M8.81312 43.0085C8.92733 42.7756 9.04254 42.5432 9.15875 42.3114H164.841C164.957 42.5432 165.073 42.7756 165.187 43.0085H8.81312Z" fill="white"/>
<path d="M5.76724 49.9795C5.85702 49.7466 5.94778 49.5143 6.0395 49.2824H167.961C168.052 49.5143 168.143 49.7466 168.233 49.9795H5.76724Z" fill="white"/>
<path d="M3.41446 56.9505C3.48214 56.7177 3.55077 56.4853 3.62034 56.2534H170.38C170.449 56.4853 170.518 56.7177 170.586 56.9505H3.41446Z" fill="white"/>
<path d="M1.69747 63.9214C1.74465 63.6887 1.79277 63.4563 1.8418 63.2243H172.158C172.207 63.4563 172.255 63.6887 172.303 63.9214H1.69747Z" fill="white"/>
<path d="M0.576552 70.8924C0.604345 70.6597 0.633054 70.4273 0.662674 70.1953H173.337C173.367 70.4273 173.396 70.6597 173.423 70.8924H0.576552Z" fill="white"/>
<path d="M0.0246406 77.8633C0.0337808 77.6307 0.0438317 77.3983 0.05479 77.1662H173.945C173.956 77.3983 173.966 77.6307 173.975 77.8633H0.0246406Z" fill="white"/>
<path d="M0.0246406 84.8343C0.0155188 84.6021 0.0073041 84.3698 0 84.1372H174C173.993 84.3698 173.984 84.6021 173.975 84.8343H0.0246406Z" fill="white"/>
<path d="M0.576552 91.8052C0.548826 91.5731 0.522011 91.3408 0.496111 91.1081H173.504C173.478 91.3408 173.451 91.5731 173.423 91.8052H0.576552Z" fill="white"/>
<path d="M1.69747 98.7762C1.65042 98.5441 1.60429 98.3118 1.55909 98.0791H172.441C172.396 98.3118 172.35 98.5441 172.303 98.7762H1.69747Z" fill="white"/>
<path d="M3.41446 105.747C3.34701 105.515 3.28049 105.283 3.21492 105.05H170.785C170.72 105.283 170.653 105.515 170.586 105.747H3.41446Z" fill="white"/>
<path d="M5.76724 112.718C5.67782 112.486 5.58937 112.254 5.50188 112.021H168.498C168.411 112.254 168.322 112.486 168.233 112.718H5.76724Z" fill="white"/>
<path d="M8.81312 119.689C8.69949 119.457 8.58686 119.225 8.47523 118.992H165.525C165.413 119.225 165.301 119.457 165.187 119.689H8.81312Z" fill="white"/>
<path d="M12.6354 126.66C12.4943 126.428 12.3542 126.196 12.2152 125.963H161.785C161.646 126.196 161.506 126.428 161.365 126.66H12.6354Z" fill="white"/>
<path d="M17.3586 133.631C17.185 133.399 17.0124 133.167 16.841 132.934H157.159C156.988 133.167 156.815 133.399 156.641 133.631H17.3586Z" fill="white"/>
<path d="M23.178 140.602C22.9637 140.371 22.7506 140.138 22.5388 139.905H151.461C151.249 140.138 151.036 140.371 150.822 140.602H23.178Z" fill="white"/>
<path d="M30.4258 147.573C30.1565 147.342 29.8887 147.11 29.6222 146.876H144.378C144.111 147.11 143.843 147.342 143.574 147.573H30.4258Z" fill="white"/>
<path d="M39.7522 154.544C39.3975 154.314 39.0447 154.082 38.6937 153.847H135.306C134.955 154.082 134.602 154.314 134.248 154.544H39.7522Z" fill="white"/>
<path d="M52.8289 161.515C52.2976 161.288 51.769 161.055 51.2432 160.818H122.757C122.231 161.055 121.702 161.288 121.171 161.515H52.8289Z" fill="white"/>
<path d="M98.0627 167.789C94.4399 168.249 90.7476 168.486 87 168.486C83.2524 168.486 79.5601 168.249 75.9373 167.789H98.0627Z" fill="white"/>
</svg>
