<svg width="168" height="24" viewBox="0 0 168 24" fill="none" xmlns="http://www.w3.org/2000/svg">
<path d="M23.25 5.13282C22.406 5.49955 21.513 5.74116 20.5992 5.85001C21.5595 5.28769 22.2817 4.39434 22.6303 3.33751C21.7224 3.86841 20.7307 4.24092 19.6978 4.43907C19.2629 3.98322 18.7397 3.62059 18.1603 3.3732C17.5808 3.12581 16.9571 2.99884 16.327 3.00001C13.7761 3.00001 11.7117 5.03438 11.7117 7.5422C11.7099 7.89102 11.7499 8.23881 11.8308 8.57813C10.0016 8.49238 8.2104 8.02575 6.57187 7.2081C4.93333 6.39044 3.48351 5.23977 2.31516 3.8297C1.90527 4.52069 1.6885 5.30909 1.6875 6.11251C1.6875 7.68751 2.50922 9.0797 3.75 9.89532C3.01487 9.87787 2.29481 9.68331 1.65094 9.32813V9.38438C1.65094 11.5875 3.24469 13.4203 5.35406 13.8375C4.9574 13.9432 4.54864 13.9968 4.13812 13.9969C3.84683 13.9974 3.5562 13.9691 3.27047 13.9125C3.85687 15.7172 5.56359 17.0297 7.58531 17.0672C5.94252 18.3333 3.9256 19.0175 1.85156 19.0125C1.48341 19.012 1.11561 18.99 0.75 18.9469C2.85993 20.2942 5.31255 21.0068 7.81594 21C16.3172 21 20.9616 14.0766 20.9616 8.07188C20.9616 7.87501 20.9564 7.67813 20.947 7.48595C21.8485 6.84472 22.6283 6.04787 23.25 5.13282V5.13282Z" fill="#E0E5F3"/>
<path fill-rule="evenodd" clip-rule="evenodd" d="M70.5 12.0635C70.5 6.26504 65.7984 1.56348 60 1.56348C54.2016 1.56348 49.5 6.26504 49.5 12.0635C49.5 17.3041 53.3391 21.648 58.3594 22.4364V15.0996H55.6927V12.0635H58.3594V9.75019C58.3594 7.1191 59.9273 5.66457 62.3255 5.66457C63.4744 5.66457 64.6763 5.86988 64.6763 5.86988V8.4541H63.3516C62.048 8.4541 61.6402 9.26316 61.6402 10.0947V12.0635H64.552L64.087 15.0996H61.6406V22.4374C66.6609 21.6494 70.5 17.3055 70.5 12.0635Z" fill="#E0E5F3"/>
<path d="M108 1.5C102.203 1.5 97.5 6.20297 97.5 12C97.5 17.797 102.203 22.5 108 22.5C113.797 22.5 118.5 17.8022 118.5 12C118.5 6.19781 113.797 1.5 108 1.5ZM114.667 6.33984C115.881 7.76805 116.605 9.54925 116.729 11.4202C114.837 11.3217 112.573 11.3217 110.757 11.4914C110.528 10.9116 110.292 10.343 110.035 9.79594C112.129 8.88844 113.742 7.69594 114.667 6.33984ZM108 3.24984C110.04 3.24634 112.016 3.95866 113.584 5.26266C112.632 6.46547 111.139 7.51266 109.28 8.30297C108.262 6.42188 107.092 4.80328 105.844 3.52875C106.548 3.3469 107.272 3.25322 108 3.24984ZM104.04 4.20703C105.304 5.46469 106.491 7.06641 107.53 8.94141C105.555 9.54469 103.291 9.89062 100.875 9.89062C100.416 9.89062 99.9675 9.87422 99.5245 9.84656C99.8327 8.63935 100.395 7.5118 101.174 6.53927C101.952 5.56673 102.93 4.77161 104.04 4.20703ZM99.2663 11.5842C99.7641 11.6062 100.267 11.617 100.776 11.6119C103.532 11.5791 106.097 11.1469 108.301 10.44C108.509 10.8722 108.706 11.3152 108.892 11.7689C108.625 11.8272 108.364 11.9056 108.109 12.0033C105.096 13.2689 102.723 15.3084 101.438 17.775C100.028 16.1814 99.2501 14.1274 99.2498 12C99.2498 11.8594 99.2555 11.7211 99.2663 11.5842ZM108 20.7502C106.056 20.7525 104.167 20.1036 102.635 18.907C103.8 16.5994 105.878 14.6883 108.498 13.5037C108.744 13.3889 109.072 13.2961 109.449 13.2141C109.762 14.0778 110.041 14.9747 110.286 15.9047C110.652 17.3083 110.922 18.7354 111.094 20.1759C110.106 20.5543 109.058 20.7489 108 20.7502ZM112.731 19.3556C112.56 17.9001 112.287 16.4584 111.915 15.0408C111.728 14.3297 111.517 13.6406 111.287 12.968C113.004 12.8273 115.06 12.8475 116.695 12.968C116.551 14.2606 116.121 15.5047 115.435 16.6097C114.749 17.7148 113.825 18.6529 112.731 19.3556Z" fill="#FFC93E"/>
<path d="M156 1.5C150.202 1.5 145.5 6.32344 145.5 12.2672C145.5 17.025 148.509 21.0562 152.681 22.4812C152.74 22.494 152.799 22.5002 152.859 22.5C153.248 22.5 153.398 22.2141 153.398 21.9656C153.398 21.7078 153.389 21.0328 153.384 20.1328C153.037 20.2142 152.682 20.2567 152.325 20.2594C150.305 20.2594 149.845 18.6891 149.845 18.6891C149.367 17.4469 148.678 17.1141 148.678 17.1141C147.764 16.4719 148.673 16.4531 148.744 16.4531H148.748C149.803 16.5469 150.356 17.5687 150.356 17.5687C150.881 18.4875 151.584 18.7453 152.212 18.7453C152.628 18.737 153.037 18.6412 153.413 18.4641C153.506 17.7703 153.778 17.2969 154.078 17.025C151.748 16.7531 149.297 15.8297 149.297 11.7047C149.297 10.5281 149.705 9.56719 150.375 8.81719C150.267 8.54531 149.906 7.44844 150.478 5.96719C150.555 5.94883 150.634 5.94095 150.712 5.94375C151.092 5.94375 151.95 6.08906 153.366 7.07344C155.086 6.59218 156.905 6.59218 158.625 7.07344C160.041 6.08906 160.898 5.94375 161.278 5.94375C161.357 5.94095 161.436 5.94883 161.513 5.96719C162.084 7.44844 161.723 8.54531 161.616 8.81719C162.286 9.57187 162.694 10.5328 162.694 11.7047C162.694 15.8391 160.238 16.7484 157.898 17.0156C158.273 17.3484 158.611 18.0047 158.611 19.0078C158.611 20.4469 158.597 21.6094 158.597 21.9609C158.597 22.2141 158.742 22.5 159.131 22.5C159.194 22.5003 159.257 22.494 159.319 22.4812C163.495 21.0562 166.5 17.0203 166.5 12.2672C166.5 6.32344 161.798 1.5 156 1.5Z" fill="#E0E5F3"/>
</svg>
