<svg width="54" height="21" viewBox="0 0 54 21" fill="none" xmlns="http://www.w3.org/2000/svg">
<path d="M16.5146 5.16748C14.2222 5.16748 12.5889 6.73486 12.5889 8.88086V8.89551C12.5889 10.9023 14.0098 12.3818 16.0386 12.3818C17.4888 12.3818 18.4116 11.6421 18.7998 10.8071H18.9463C18.9463 10.8877 18.939 10.9683 18.939 11.0488C18.8584 13.0703 18.1479 14.7109 16.4707 14.7109C15.5405 14.7109 14.8887 14.2275 14.6104 13.4878L14.5884 13.4146H12.728L12.7427 13.4951C13.0796 15.1138 14.5298 16.2637 16.4707 16.2637C19.1294 16.2637 20.7334 14.1543 20.7334 10.5947V10.5801C20.7334 6.77148 18.7705 5.16748 16.5146 5.16748ZM16.5073 10.9316C15.3062 10.9316 14.4346 10.0527 14.4346 8.82959V8.81494C14.4346 7.63574 15.3647 6.70557 16.5293 6.70557C17.7012 6.70557 18.6167 7.65039 18.6167 8.85889V8.87354C18.6167 10.0674 17.7012 10.9316 16.5073 10.9316ZM23.5586 9.15186C24.2324 9.15186 24.7231 8.63916 24.7231 7.99463C24.7231 7.34277 24.2324 6.8374 23.5586 6.8374C22.8921 6.8374 22.394 7.34277 22.394 7.99463C22.394 8.63916 22.8921 9.15186 23.5586 9.15186ZM23.5586 14.5864C24.2324 14.5864 24.7231 14.0811 24.7231 13.4292C24.7231 12.7773 24.2324 12.272 23.5586 12.272C22.8921 12.272 22.394 12.7773 22.394 13.4292C22.394 14.0811 22.8921 14.5864 23.5586 14.5864ZM31.5107 16H33.3198V13.9712H34.7407V12.4111H33.3198V5.43115H30.6465C29.2109 7.61377 27.7095 10.0454 26.3398 12.4258V13.9712H31.5107V16ZM28.0977 12.4551V12.3452C29.123 10.5508 30.3462 8.59521 31.4302 6.93994H31.54V12.4551H28.0977ZM38.6206 16H40.5103V5.43115H38.6279L35.8667 7.37207V9.15186L38.4961 7.2915H38.6206V16Z" fill="white"/>
</svg>
